<svg width="256" height="256" fill="none" xmlns="http://www.w3.org/2000/svg"><path fill="#FFE600" d="M0 0h256v256H0z"/><path d="M14.45 41.98c0-5.859.483-10.165 1.45-12.92.966-2.753 2.02-4.775 3.164-6.064 2.49-2.812 6.122-4.233 10.898-4.263 6.68.03 10.986 2.974 12.92 8.833 1.113 3.37 1.67 7.852 1.67 13.448v8.569H35.63V40.97c0-4.951-.279-8.291-.835-10.02-.527-1.758-1.172-2.915-1.934-3.471-.761-.586-1.728-.88-2.9-.88-2.432 0-4.116 1.158-5.054 3.472-.908 2.285-1.362 5.904-1.362 10.855v33.486c0 5.86.41 9.961 1.23 12.305.85 2.314 2.461 3.472 4.834 3.472 2.403 0 4-1.172 4.79-3.516.82-2.344 1.23-6.445 1.23-12.305v-8.57h9.01v8.482c0 8.115-1.114 14.092-3.34 17.93-2.197 3.809-6.05 5.713-11.558 5.713s-9.433-1.963-11.777-5.889c-2.344-3.955-3.516-9.902-3.516-17.842V41.981zm42.141-1.318c0-8.789 1.582-14.824 4.746-18.105 2.49-2.578 6.108-3.867 10.855-3.867 6.914 0 11.338 2.841 13.271 8.525 1.143 3.369 1.714 7.851 1.714 13.447v34.102c0 8.056-1.128 13.93-3.384 17.622-2.256 3.662-6.21 5.493-11.865 5.493-5.625 0-9.595-1.846-11.91-5.537-2.284-3.692-3.427-9.551-3.427-17.578V40.662zm21.49-.527c0-4.951-.396-8.452-1.187-10.503-.791-2.08-2.388-3.12-4.79-3.12-2.403 0-4.073 1.054-5.01 3.164-.938 2.11-1.406 5.58-1.406 10.415v34.76c0 5.89.41 9.903 1.23 12.042.82 2.109 2.476 3.164 4.966 3.164s4.145-1.07 4.966-3.208c.82-2.168 1.23-6.167 1.23-11.997V40.135zm22.629-20.479h23.291v7.603h-14.238v24.433h13.359v7.69h-13.359V97h-9.053V19.656zm55.677 0h9.053v57.48c0 7.237-1.143 12.51-3.428 15.821-2.256 3.31-6.181 4.966-11.777 4.966-5.596 0-9.551-1.655-11.865-4.966-2.315-3.31-3.472-8.584-3.472-15.82v-57.48h9.097v57.26c0 5.156.205 8.247.615 9.272.439.997.894 1.788 1.362 2.374.821 1.113 2.241 1.67 4.263 1.67 2.021 0 3.516-.616 4.482-1.846.967-1.23 1.48-3.062 1.538-5.493.088-2.432.132-4.41.132-5.933V19.656zm18.016 0h25.532v7.559h-7.954V97h-9.052V27.215h-8.526v-7.559zm55.985 0h9.052v57.48c0 7.237-1.142 12.51-3.427 15.821-2.256 3.31-6.182 4.966-11.778 4.966-5.595 0-9.55-1.655-11.865-4.966-2.314-3.31-3.472-8.584-3.472-15.82v-57.48h9.097v57.26c0 5.156.205 8.247.615 9.272.44.997.894 1.788 1.363 2.374.82 1.113 2.241 1.67 4.262 1.67 2.022 0 3.516-.616 4.483-1.846.967-1.23 1.479-3.062 1.538-5.493.088-2.432.132-4.41.132-5.933V19.656zm-215.06 97h16.216c4.6 0 7.91.952 9.932 2.857 2.021 1.904 3.237 5.141 3.647 9.712.176 1.875.264 4.804.264 8.789 0 3.955-.528 7.28-1.582 9.975-1.026 2.696-2.857 4.439-5.493 5.23 1.933.322 3.398 1.347 4.394 3.076.996 1.699 1.7 4.424 2.11 8.174.41 3.72.615 9.272.615 16.655 0 7.354.234 11.646.703 12.876H37.08c-.469-.938-.703-9.624-.703-26.06 0-5.537-.542-8.745-1.626-9.624-1.084-.908-2.725-1.362-4.922-1.362l-5.405-.308V194h-9.097v-77.344zm21.05 18.941c0-5.948-.542-9.39-1.626-10.327-1.055-.938-2.593-1.407-4.614-1.407h-5.713v26.104h5.8c1.758 0 3.047-.337 3.868-1.011.82-.674 1.406-1.963 1.758-3.867.351-1.904.527-4.893.527-8.965v-.527zm19.995 2.065c0-8.789 1.582-14.824 4.746-18.105 2.49-2.578 6.109-3.868 10.855-3.868 6.914 0 11.337 2.842 13.271 8.526 1.143 3.369 1.714 7.851 1.714 13.447v34.102c0 8.056-1.128 13.93-3.384 17.622-2.256 3.662-6.21 5.493-11.865 5.493-5.625 0-9.595-1.846-11.91-5.537-2.284-3.692-3.427-9.551-3.427-17.578v-34.102zm21.49-.527c0-4.951-.396-8.452-1.187-10.503-.791-2.08-2.388-3.12-4.79-3.12-2.403 0-4.072 1.054-5.01 3.164-.938 2.109-1.406 5.581-1.406 10.415v34.761c0 5.888.41 9.902 1.23 12.041.82 2.109 2.476 3.164 4.966 3.164s4.145-1.07 4.966-3.208c.82-2.168 1.23-6.167 1.23-11.997v-34.717zm20.873-20.479h9.097v69.829h14.282V194H98.736v-77.344zm29.444 21.006c0-8.789 1.582-14.824 4.746-18.105 2.49-2.578 6.108-3.868 10.854-3.868 6.914 0 11.338 2.842 13.272 8.526 1.142 3.369 1.714 7.851 1.714 13.447v34.102c0 8.056-1.128 13.93-3.384 17.622-2.256 3.662-6.211 5.493-11.865 5.493-5.625 0-9.595-1.846-11.91-5.537-2.285-3.692-3.427-9.551-3.427-17.578v-34.102zm21.489-.527c0-4.951-.396-8.452-1.187-10.503-.791-2.08-2.387-3.12-4.79-3.12-2.402 0-4.072 1.054-5.009 3.164-.938 2.109-1.407 5.581-1.407 10.415v34.761c0 5.888.411 9.902 1.231 12.041.82 2.109 2.475 3.164 4.966 3.164 2.49 0 4.145-1.07 4.965-3.208.821-2.168 1.231-6.167 1.231-11.997v-34.717zm19.995 1.406c0-11.367 2.695-18.428 8.086-21.182 2.109-1.054 4.424-1.596 6.943-1.626 4.717 0 8.13 1.011 10.24 3.033 2.109 1.992 3.471 4.643 4.087 7.954.615 3.281.922 7.28.922 11.997v5.976h-8.789V134.63c0-3.955-.41-6.782-1.23-8.482-.791-1.699-2.373-2.548-4.746-2.548-2.344 0-3.999 1.069-4.966 3.208-.967 2.138-1.45 5.918-1.45 11.338v32.519c0 6.182.425 10.488 1.274 12.92.85 2.402 2.52 3.603 5.01 3.603 2.519 0 4.233-1.245 5.142-3.735.937-2.49 1.406-6.811 1.406-12.964v-10.063h-6.284v-7.031h14.633V194h-4.79l-1.23-5.977c-1.729 4.483-5.039 6.724-9.932 6.724-4.863 0-8.467-1.89-10.81-5.669-2.344-3.808-3.516-9.844-3.516-18.105v-32.432zm62.93-21.885h8.921l-12.481 44.868V194h-9.096v-32.476l-13.448-44.868h8.833l9.141 31.641h.176l7.954-31.641zM17.23 239l-3.307-27.07h3.691l1.984 19.287 2.523-19.287h3.322l2.538 19.287 1.753-19.287h3.707L30.334 239h-4.107l-2.399-17.996L21.336 239H17.23zm19.933 0v-27.07h4.122V239h-4.122zm10.35 0v-23.502h-3.168v-3.568h10.32v3.568H51.62V239h-4.107zm10.074 0v-27.07h4.122v10.951h3.692V211.93h4.122V239H65.4v-12.582h-3.692V239h-4.122zm33.099-6.629c0 2.215-.487 3.927-1.462 5.137-.974 1.2-2.348 1.8-4.122 1.8-1.763 0-3.137-.534-4.122-1.6-.974-1.077-1.46-2.64-1.46-4.691v-4.83h3.983v4.63c0 1.497.24 2.41.723 2.738.215.143.482.215.8.215.625 0 1.035-.256 1.23-.769.205-.513.308-1.323.308-2.43V211.93h4.122v20.441zM95.315 239v-27.07h9.074v3.553h-4.952v7.875h4.706v3.476h-4.706v8.613h5.137V239h-9.26zm13.165 0v-27.07h9.29v3.583h-5.168v7.199h4.799v3.599h-4.799V239h-4.122zm12.873 0v-27.07h9.29v3.583h-5.168v7.199h4.799v3.599h-4.799V239h-4.122zm23.947-10.859c-1.456 1.948-2.184 3.579-2.184 4.891.369 1.395 1.082 2.312 2.138 2.753.431 0 .836-.174 1.215-.523.379-.348.784-.876 1.215-1.584a271.09 271.09 0 01-2.384-5.537zm-1.4-3.445c-1.466-3.794-2.199-6.455-2.199-7.983 0-1.528.446-2.758 1.338-3.691.892-.944 2.123-1.415 3.691-1.415 1.569 0 2.759.456 3.569 1.369.82.912 1.23 2.132 1.23 3.66 0 1.518-.318 2.902-.953 4.153-.626 1.241-1.508 2.584-2.646 4.03a200.466 200.466 0 001.984 4.937c.985-1.651 1.959-3.05 2.923-4.199l1.676 2.83c-.8.882-1.769 2.415-2.907 4.599a13 13 0 01-.184.338c.389.923.861 2.031 1.415 3.323.564 1.292.902 2.076 1.015 2.353h-3.815a75.465 75.465 0 00-.876-2c-1.282 1.539-2.759 2.308-4.43 2.308-1.661 0-2.928-.528-3.799-1.585-.872-1.066-1.308-2.466-1.308-4.199 0-1.732.411-3.281 1.231-4.645.82-1.374 1.835-2.768 3.045-4.183zm2.754-3.292c1.353-1.753 2.03-3.26 2.03-4.522 0-.902-.113-1.543-.339-1.922-.225-.38-.63-.569-1.215-.569-1.128 0-1.692.815-1.692 2.445 0 .749.405 2.271 1.216 4.568zm24.239 9.46l-1.815-13.597h-.062l-1.661 13.597h3.538zM162.402 239l3.861-27.07h5.445l4.106 27.07h-3.845l-.646-4.83h-4.368l-.584 4.83h-3.969zm16.872 0v-27.07h3.23l5.738 16.242-.293-7.383v-8.859h3.707V239h-2.922l-5.891-16.811.231 7.106V239h-3.8zm24.348-8.136l-1.815-13.597h-.062l-1.661 13.597h3.538zm-8.49 8.136l3.86-27.07h5.445l4.107 27.07h-3.846l-.646-4.83h-4.368L199.1 239h-3.968zm16.872 0v-27.07h3.23l5.737 16.242-.292-7.383v-8.859h3.706V239h-2.922l-5.891-16.811.231 7.106V239h-3.799zm21.194-3.199h1.353c.759 0 1.308-.246 1.646-.739.349-.492.523-1.394.523-2.707l-.015-13.365c0-1.405-.175-2.405-.523-3-.339-.594-.928-.892-1.769-.892h-1.215v20.703zM229.076 239v-27.07h6.075c1.99 0 3.43.589 4.322 1.768.903 1.169 1.354 2.897 1.354 5.184l.015 12.212c0 2.728-.451 4.727-1.353 5.999-.903 1.271-2.395 1.907-4.476 1.907h-5.937z" fill="#000"/></svg>
